<?xml version="1.0" standalone="no"?>
<!DOCTYPE svg PUBLIC "-//W3C//DTD SVG 20010904//EN"
 "http://www.w3.org/TR/2001/REC-SVG-20010904/DTD/svg10.dtd">
<svg version="1.0" xmlns="http://www.w3.org/2000/svg"
 width="327.000000pt" height="315.000000pt" viewBox="0 0 327.000000 315.000000"
 preserveAspectRatio="xMidYMid meet">

<g transform="translate(0.000000,315.000000) scale(0.100000,-0.100000)"
fill="#000000" stroke="none">
<path d="M1405 3045 c-332 -54 -608 -200 -836 -443 -181 -192 -301 -424 -361
-699 -29 -131 -31 -403 -4 -537 111 -559 512 -991 1051 -1131 471 -122 980 10
1329 345 268 258 420 577 446 940 51 718 -439 1367 -1140 1510 -138 28 -361
35 -485 15z m205 -1295 l0 -520 -332 2 -333 3 0 85 0 85 243 3 242 2 0 145 0
145 -215 0 -215 0 0 85 0 85 215 0 215 0 0 200 0 200 90 0 90 0 0 -520z m720
446 c0 -41 -3 -81 -6 -90 -5 -14 -36 -16 -245 -16 l-239 0 0 -145 0 -145 215
0 215 0 0 -80 0 -80 -215 0 -215 0 -2 -202 -3 -203 -87 -3 -88 -3 0 521 0 520
335 0 335 0 0 -74z m-1262 -1112 c59 -67 -16 -167 -101 -135 -66 25 -74 114
-14 152 40 25 84 19 115 -17z m409 27 c74 -3 66 -121 -8 -121 -9 0 -19 -9 -22
-20 -3 -11 -12 -20 -21 -20 -13 0 -16 13 -16 78 0 85 2 92 28 87 9 -2 27 -4
39 -4z m226 -19 c23 -20 25 -142 2 -142 -8 0 -15 7 -15 15 0 10 -11 15 -35 15
-24 0 -35 -5 -35 -15 0 -8 -9 -15 -20 -15 -18 0 -20 7 -20 63 0 48 4 68 18 79
33 29 71 29 105 0z m158 18 c5 0 9 -7 9 -15 0 -10 -10 -15 -31 -15 -37 0 -35
-19 4 -38 15 -7 32 -22 37 -33 23 -43 -35 -84 -86 -60 -30 13 -31 33 -1 31 66
-6 76 11 22 37 -38 18 -49 36 -39 65 6 21 41 39 62 32 8 -2 18 -4 23 -4z m410
-19 c41 -42 40 -90 -3 -126 -72 -60 -167 7 -136 96 9 27 57 58 91 59 10 0 32
-13 48 -29z m187 5 c16 -9 16 -68 0 -85 -11 -10 -9 -16 10 -28 30 -21 28 -33
-7 -33 -21 0 -32 6 -36 20 -3 11 -15 20 -26 20 -12 0 -19 -7 -19 -20 0 -11 -6
-20 -14 -20 -11 0 -14 16 -15 68 -1 97 1 100 52 92 24 -3 48 -10 55 -14z m202
-2 c0 -9 -11 -14 -30 -14 l-30 0 0 -65 c0 -51 -3 -65 -15 -65 -12 0 -15 14
-15 64 0 62 -1 65 -25 68 -46 6 -26 23 32 28 68 6 83 3 83 -16z m-1940 1 c0
-11 -11 -15 -40 -15 -33 0 -40 -3 -40 -19 0 -15 8 -21 32 -23 43 -4 48 -26 6
-30 -28 -2 -34 -7 -36 -30 -2 -16 -9 -28 -18 -28 -11 0 -14 17 -14 80 l0 80
55 0 c42 0 55 -3 55 -15z m80 -49 l0 -65 37 -3 c20 -2 38 -9 41 -15 3 -10 -12
-13 -55 -13 l-58 0 3 80 c3 61 7 80 18 80 11 0 14 -15 14 -64z m444 48 c19
-19 21 -65 4 -83 -11 -10 -10 -15 5 -25 9 -7 17 -18 17 -25 0 -19 -44 -12 -58
9 -7 11 -17 20 -22 20 -6 0 -10 -9 -10 -20 0 -13 -7 -20 -20 -20 -18 0 -20 7
-20 80 l0 80 44 0 c27 0 51 -6 60 -16z m106 -64 c0 -64 -3 -80 -15 -80 -12 0
-15 16 -15 80 0 64 3 80 15 80 12 0 15 -16 15 -80z m620 45 c0 -33 2 -35 34
-35 32 0 35 3 38 32 2 22 9 34 21 36 15 3 17 -6 17 -77 0 -74 -2 -81 -20 -81
-16 0 -20 7 -20 30 0 28 -3 30 -35 30 -32 0 -35 -2 -35 -30 0 -20 -5 -30 -15
-30 -12 0 -15 16 -15 80 0 64 3 80 15 80 10 0 15 -11 15 -35z"/>
<path d="M966 1064 c-9 -8 -16 -24 -16 -35 0 -22 34 -59 53 -59 37 0 62 71 35
98 -17 17 -54 15 -72 -4z"/>
<path d="M1450 1051 c0 -32 6 -37 28 -22 19 11 11 45 -11 49 -13 3 -17 -3 -17
-27z"/>
<path d="M1627 1074 c-4 -4 -7 -20 -7 -36 0 -25 4 -28 30 -28 34 0 49 23 33
49 -11 17 -44 26 -56 15z"/>
<path d="M2176 1064 c-21 -21 -20 -47 3 -75 17 -21 21 -22 50 -10 25 11 31 19
31 45 0 18 -5 37 -12 44 -17 17 -54 15 -72 -4z"/>
<path d="M2389 1078 c-5 -20 -4 -50 2 -53 4 -3 15 -2 24 1 21 8 16 48 -7 52
-10 2 -18 2 -19 0z"/>
<path d="M1180 1050 c0 -34 11 -38 35 -14 12 12 13 19 4 30 -20 24 -39 16 -39
-16z"/>
</g>
</svg>
